<?xml version="1.0" encoding="utf-8"?>
<!-- Generator: Adobe Illustrator 16.0.0, SVG Export Plug-In . SVG Version: 6.00 Build 0)  -->
<!DOCTYPE svg PUBLIC "-//W3C//DTD SVG 1.1//EN" "http://www.w3.org/Graphics/SVG/1.1/DTD/svg11.dtd">
<svg version="1.1" id="Layer_1" xmlns="http://www.w3.org/2000/svg" xmlns:xlink="http://www.w3.org/1999/xlink" x="0px" y="0px"
	 width="175px" height="225px" viewBox="0 12.5 175 225" enable-background="new 0 12.5 175 225" xml:space="preserve">
<g>
	<polygon fill="#0E1E24" points="0,237.5 0,12.5 175,12.5 175,237.5 	"/>
	<path fill="#8DC63F" d="M99.943,77.465c17.134,4.471,30.619,17.961,35.091,35.091c-6.06,0.028-11.089,4.39-12.162,10.142H99.729
		c-0.324-1.725-0.996-3.322-1.951-4.717l8.303-8.303c0.887,0.419,1.869,0.673,2.916,0.673c3.779,0,6.845-3.066,6.845-6.844
		c0-3.784-3.062-6.848-6.845-6.848s-6.848,3.063-6.848,6.848c0,1.042,0.25,2.028,0.676,2.911l-8.307,8.307
		c-1.396-0.956-2.994-1.628-4.718-1.952V89.629C95.557,88.549,99.915,83.525,99.943,77.465z M52.127,122.698h23.146
		c0.322-1.725,0.994-3.322,1.947-4.717l-8.303-8.303c-0.887,0.419-1.868,0.673-2.915,0.673c-3.783,0-6.847-3.066-6.847-6.844
		c0-1.049,0.255-2.029,0.673-2.921h-0.001l0.005-0.005c0.675-1.421,1.822-2.569,3.247-3.248l0.004-0.004v0.002
		c0.889-0.42,1.871-0.673,2.918-0.673c3.781,0,6.846,3.063,6.846,6.848c0,1.042-0.252,2.028-0.674,2.915l8.305,8.303
		c1.395-0.956,2.994-1.628,4.715-1.952V89.629c-5.752-1.08-10.105-6.104-10.139-12.166c-17.129,4.473-30.617,17.962-35.09,35.093
		C46.02,112.584,51.051,116.946,52.127,122.698z M85.195,160.371v-23.148c-1.723-0.32-3.322-0.992-4.715-1.947l-8.307,8.305
		c0.422,0.887,0.674,1.871,0.674,2.914c0,3.783-3.064,6.85-6.846,6.85c-3.783,0-6.847-3.066-6.847-6.85
		c0-3.781,3.064-6.846,6.847-6.846c1.047,0,2.027,0.256,2.915,0.674l8.306-8.305c-0.955-1.395-1.627-2.994-1.951-4.719H52.127
		c-1.079,5.754-6.107,10.117-12.163,10.145c4.473,17.133,17.96,30.619,35.091,35.09C75.084,166.477,79.443,161.451,85.195,160.371z
		 M122.872,127.301H99.729c-0.326,1.723-0.996,3.322-1.951,4.719l8.303,8.303c0.887-0.418,1.869-0.672,2.916-0.672
		c3.779,0,6.845,3.062,6.845,6.844c0,1.049-0.254,2.029-0.673,2.916l0.003,0.004l-0.007,0.002c-0.676,1.426-1.816,2.57-3.244,3.248
		l-0.005,0.004l-0.004-0.002c-0.888,0.422-1.867,0.678-2.915,0.678c-3.783,0-6.848-3.066-6.848-6.85c0-1.043,0.25-2.027,0.676-2.914
		l-8.307-8.305c-1.396,0.955-2.994,1.627-4.718,1.947v23.148c5.757,1.08,10.113,6.104,10.144,12.162
		c17.135-4.474,30.619-17.959,35.092-35.092C128.977,137.416,123.951,133.053,122.872,127.301z M152.305,124.997
		c0-35.729-29.072-64.8-64.808-64.8c-35.73,0-64.801,29.072-64.801,64.8c0,35.737,29.071,64.806,64.801,64.806
		C123.23,189.803,152.305,160.734,152.305,124.997z M144.584,124.997c0,31.479-25.607,57.089-57.087,57.089
		c-31.475,0-57.084-25.609-57.084-57.089c0-31.476,25.609-57.083,57.084-57.083C118.977,67.914,144.584,93.521,144.584,124.997z"/>
</g>
</svg>
